<?xml version="1.0" standalone="no"?><!DOCTYPE svg PUBLIC "-//W3C//DTD SVG 1.1//EN" "http://www.w3.org/Graphics/SVG/1.1/DTD/svg11.dtd"><svg t="1624661940478" class="icon" viewBox="0 0 1024 1024" version="1.1" xmlns="http://www.w3.org/2000/svg" p-id="18667" xmlns:xlink="http://www.w3.org/1999/xlink" width="128" height="128"><defs><style type="text/css"></style></defs><path d="M27.57 613.612a75.225 75.225 0 1 0 75.224-75.224 75.618 75.618 0 0 0-75.225 75.224z m266.24-261.514a78.77 78.77 0 0 0 36.627 65.379 69.317 69.317 0 0 0 74.83 0 74.043 74.043 0 0 0 36.628-65.379 74.043 74.043 0 1 0-148.086 0z m552.565-9.846a75.225 75.225 0 1 0 74.831-75.224 75.225 75.225 0 0 0-74.83 75.224zM570.29 618.338a75.225 75.225 0 1 0 74.831-74.83 75.225 75.225 0 0 0-74.83 74.83z m-458.043-14.572a33.477 33.477 0 0 1 0-46.08l202.83-198.498a33.083 33.083 0 0 1 45.687 0 33.477 33.477 0 0 1 0 46.08L159.902 602.19a33.477 33.477 0 0 1-46.08 0z m557.292 0a33.477 33.477 0 0 1 0-46.08L870.4 360.763a32.69 32.69 0 1 1 46.08 46.08L715.618 603.766a33.477 33.477 0 0 1-46.08 0z m-26.781 7.483a33.477 33.477 0 0 0 0-46.08L433.23 356.825a32.69 32.69 0 0 0-47.262 46.08l210.708 208.344a29.538 29.538 0 0 0 46.08 0z" p-id="18668"></path></svg>