<?xml version="1.0" standalone="no"?><!DOCTYPE svg PUBLIC "-//W3C//DTD SVG 1.1//EN" "http://www.w3.org/Graphics/SVG/1.1/DTD/svg11.dtd"><svg t="1624650297350" class="icon" viewBox="0 0 1024 1024" version="1.1" xmlns="http://www.w3.org/2000/svg" p-id="13494" xmlns:xlink="http://www.w3.org/1999/xlink" width="128" height="128"><defs><style type="text/css"></style></defs><path d="M968.405333 840.96L538.112 66.432a29.866667 29.866667 0 0 0-52.224 0L55.594667 840.96a29.866667 29.866667 0 0 0 26.112 44.373333h860.586666a29.866667 29.866667 0 0 0 26.112-44.373333zM526.933333 178.048l343.253334 617.941333a17.066667 17.066667 0 0 1-14.933334 25.344H168.704a17.066667 17.066667 0 0 1-14.933333-25.344L497.066667 178.048a17.066667 17.066667 0 0 1 29.866666 0z" fill="#000000" fill-opacity=".87" p-id="13495"></path><path d="M526.933333 661.333333c9.386667 0 17.066667 7.68 17.066667 17.066667v28.885333a17.066667 17.066667 0 0 1-17.066667 17.066667h-29.866666a17.066667 17.066667 0 0 1-17.066667-17.066667V678.4c0-9.386667 7.68-17.066667 17.066667-17.066667h29.866666z m0-298.666666c9.386667 0 17.066667 7.68 17.066667 17.066666v243.2a17.066667 17.066667 0 0 1-17.066667 17.066667h-29.866666a17.066667 17.066667 0 0 1-17.066667-17.066667V379.733333c0-9.386667 7.68-17.066667 17.066667-17.066666h29.866666z" fill="#FA6400" p-id="13496"></path></svg>